<svg width="24" height="24" viewBox="0 0 24 24" fill="none" xmlns="http://www.w3.org/2000/svg">
<path d="M12.0001 24C9.62703 23.9996 7.3073 23.2956 5.33425 21.977C3.36119 20.6584 1.8234 18.7844 0.915302 16.5919C0.00720033 14.3994 -0.230437 11.9869 0.232436 9.65939C0.695308 7.33186 1.83791 5.19383 3.51577 3.5156C5.46659 1.56482 8.02989 0.345615 10.7743 0.0631966C13.5186 -0.219222 16.2765 0.452383 18.5837 1.96498C18.7156 2.048 18.8295 2.15648 18.9189 2.28406C19.0083 2.41164 19.0714 2.55577 19.1045 2.70802C19.1375 2.86027 19.1399 3.01758 19.1114 3.17075C19.0829 3.32392 19.0242 3.46988 18.9387 3.60008C18.8531 3.73029 18.7425 3.84213 18.6132 3.92906C18.4839 4.016 18.3386 4.07628 18.1857 4.10639C18.0329 4.1365 17.8755 4.13582 17.7229 4.1044C17.5703 4.07299 17.4255 4.01146 17.297 3.92342C15.7241 2.88963 13.8823 2.34036 12.0001 2.34373C6.67702 2.34373 2.34389 6.67545 2.34389 12C2.34389 17.3245 6.67561 21.6562 12.0001 21.6562C17.3247 21.6562 21.6564 17.3245 21.6564 12C21.6573 11.0591 21.5207 10.1231 21.2509 9.2217C21.2067 9.07427 21.1919 8.91957 21.2075 8.76644C21.223 8.61331 21.2686 8.46474 21.3416 8.32921C21.489 8.05551 21.739 7.85157 22.0368 7.76224C22.3345 7.67292 22.6556 7.70553 22.9293 7.85291C23.203 8.00029 23.4069 8.25036 23.4962 8.5481C24.0338 10.3403 24.1449 12.2333 23.8208 14.0761C23.4967 15.9189 22.7462 17.6604 21.6293 19.1616C20.5125 20.6628 19.0601 21.8821 17.3882 22.7221C15.7163 23.5622 13.8712 23.9998 12.0001 24Z" fill="#0D0D0D"/>
</svg>
