<svg width="16" height="11" viewBox="0 0 16 11" fill="none" xmlns="http://www.w3.org/2000/svg">
<path d="M6.24377 10.7338C6.02703 10.7344 5.81234 10.6919 5.61214 10.6088C5.41194 10.5258 5.23022 10.4038 5.07752 10.25L0.890643 6.0641C0.78181 5.95526 0.695478 5.82606 0.636579 5.68386C0.577679 5.54166 0.547363 5.38926 0.547363 5.23534C0.547363 4.9245 0.670845 4.62639 0.890643 4.40659C1.11044 4.1868 1.40855 4.06332 1.71939 4.06332C2.03023 4.06332 2.32834 4.1868 2.54814 4.40659L6.24377 8.10222L13.4541 0.890033C13.6739 0.670235 13.972 0.546753 14.2828 0.546753C14.5937 0.546753 14.8918 0.670235 15.1116 0.890033C15.3314 1.10983 15.4549 1.40794 15.4549 1.71878C15.4549 2.02962 15.3314 2.32773 15.1116 2.54753L7.41048 10.25C7.25762 10.4038 7.0758 10.5256 6.87554 10.6087C6.67528 10.6917 6.46055 10.7342 6.24377 10.7338Z" fill="#0D0D0D"/>
</svg>
